<svg width="265" height="42" viewBox="0 0 265 42" fill="none" xmlns="http://www.w3.org/2000/svg">
<path fill-rule="evenodd" clip-rule="evenodd" d="M44.1614 16.0429L28.9048 13.8258L22.0807 0L15.2566 13.8258L0 16.0429L11.0403 26.8034L8.43459 42L22.0804 34.8254L35.7263 42L33.1206 26.8034L44.1614 16.0429ZM99.3227 16.0429L84.0661 13.8258L77.2421 0L70.418 13.8258L55.1614 16.0429L66.2017 26.8034L63.596 42L77.2418 34.8254L90.8877 42L88.2819 26.8034L99.3227 16.0429ZM139.228 13.8258L154.484 16.0429L143.443 26.8034L146.049 42L132.403 34.8254L118.757 42L121.363 26.8034L110.323 16.0429L125.579 13.8258L132.403 0L139.228 13.8258ZM209.645 16.0429L194.389 13.8258L187.565 0L180.741 13.8258L165.484 16.0429L176.524 26.8034L173.919 42L187.565 34.8254L201.21 42L198.605 26.8034L209.645 16.0429ZM249.55 13.8258L264.807 16.0429L253.766 26.8034L256.372 42L242.726 34.8254L229.08 42L231.686 26.8034L220.646 16.0429L235.902 13.8258L242.726 0L249.55 13.8258Z" fill="white"/>
</svg>
