<svg width="220" height="26" viewBox="0 0 220 26" fill="none" xmlns="http://www.w3.org/2000/svg">
<path fill-rule="evenodd" clip-rule="evenodd" d="M22.4778 0C24.1491 0.946727 24.197 3.46079 24.6881 5.6513C26.1394 12.1239 23.4364 21.4262 19.9273 23.9755C17.1903 25.964 12.8504 25.0894 11.256 22.6056C9.88796 23.352 8.91215 24.7978 7.34548 25.3456C6.54802 25.6243 5.32495 25.5274 4.625 25.3456C1.02878 24.4112 0.769422 22.5011 0.204257 18.4954C0.157628 18.1647 -0.0893018 17.5294 0.0342482 16.9541C0.335976 15.5493 0.146907 13.9295 0.544445 12.5016C1.82232 7.90984 3.34815 3.7129 5.98524 0.513786C6.2834 0.621808 6.15032 0.546774 6.32526 0.685048C7.19181 0.950316 7.81194 1.61058 8.53555 2.05497C8.42833 2.35545 8.50287 2.22145 8.36554 2.3975C7.90537 3.83425 6.64928 5.01121 5.98524 6.33635C4.66533 8.97057 4.05201 12.1196 3.26476 15.2416C2.72427 17.3857 3.35666 21.0206 4.28498 21.9205C4.67571 22.2993 5.38179 22.2622 6.15525 22.263C7.2655 21.2589 9.35632 20.8938 9.55577 19.0092C8.99656 18.2074 9.3216 17.2705 9.04574 16.0979C7.91354 11.2862 9.04625 2.26982 13.2963 2.05497C15.6506 0.203395 19.0688 4.34086 18.3971 7.36392C17.6874 10.5577 17.1401 13.1832 15.8468 15.7554C15.1179 17.2047 13.6425 18.4737 13.4663 20.3792C14.766 21.2717 14.9394 21.9472 17.377 21.9205C18.031 21.104 19.0097 20.6367 19.5873 19.6943C20.8533 17.6285 22.2673 11.7878 21.6276 8.56276C21.6276 7.64936 21.6276 6.73596 21.6276 5.82257C21.2719 4.35043 20.4278 2.98119 20.2674 1.54136C20.9957 1.19678 22.0071 0.624371 22.4778 0ZM92.6985 3.76759C92.4718 3.76759 92.2451 3.76759 92.0184 3.76759C90.8137 5.41048 89.1982 6.77818 87.4277 7.87771C86.9852 8.15238 86.2439 8.85623 85.7274 8.56276C85.271 8.18793 84.8609 6.01331 85.0474 5.6513C85.6391 5.09205 86.5914 4.93908 87.2577 4.45264C89.3104 2.95367 89.7695 0.362351 93.3787 0.342524C93.7793 0.695132 94.46 0.707439 94.9088 1.02757C95.4196 1.39163 95.6662 2.11702 96.099 2.56876C96.1855 7.37708 93.1867 10.0325 91.3382 13.0152C90.6519 14.123 90.3139 15.1541 89.638 16.269C89.0228 17.2841 86.9519 19.9416 87.5977 21.4067C87.7505 22.2299 87.9619 22.0234 88.4479 22.4343C90.131 22.074 91.4875 21.035 92.3585 19.8654C92.8501 19.2051 92.9876 18.4134 93.8887 18.1529C94.6149 18.8469 95.9242 18.9552 96.099 20.2079C93.9119 21.8151 90.4229 28.2141 85.7274 25.0031C85.0438 24.5356 84.7607 23.548 84.1972 22.9481C84.0832 17.2863 87.6675 12.7445 89.9782 9.24763C91.0414 7.63859 92.6289 6.35635 92.6985 3.76759ZM111.741 9.24763C110.155 9.24763 108.568 9.24763 106.981 9.24763C106.997 7.86694 106.74 7.08242 106.641 5.99383C105.784 5.26622 103.279 3.28782 102.39 5.6513C101.948 6.12202 101.87 6.75887 101.88 7.70645C102.463 8.2927 102.69 9.13192 103.41 9.59016C106.972 11.8571 113.981 12.9686 112.252 19.8654C112.068 20.5971 111.79 21.6296 111.401 22.263C109.822 24.8371 104.389 26.9418 100.69 24.6605C98.3818 23.2373 97.3936 20.6166 97.4592 16.7828C98.6398 16.3815 100.741 16.5979 102.22 16.6116C102.333 17.639 102.447 18.6667 102.56 19.6943C103.78 20.722 103.275 21.2768 105.791 21.2355C106.521 20.5658 107.254 20.5824 107.321 19.1805C107.644 18.6985 107.407 18.0389 107.321 17.4679C106.672 16.9871 106.183 16.1619 105.451 15.7554C101.659 13.6511 95.1805 12.1358 97.1192 5.48004C97.4368 4.38974 97.5045 3.48369 98.1393 2.74002C99.8697 0.71325 105.165 -0.741622 108.511 1.02757C111.047 2.3681 111.816 5.2187 111.741 9.24763ZM163.939 0.342524C167.034 0.280309 167.461 1.55486 168.87 3.08254C169.033 9.1309 164.702 11.8232 161.389 14.8991C161.496 15.1994 161.422 15.0654 161.559 15.2416C162.336 15.8026 163.456 15.717 164.45 16.0979C166.922 17.046 169.286 19.3651 167.68 22.7768C167.347 23.4837 167.076 24.2314 166.49 24.6605C163.829 26.6106 159.998 26.2745 157.308 24.6605C156.445 24.1426 155.605 24.1831 155.438 22.9481C156.14 22.2403 156.387 21.0334 157.649 20.8929C158.749 22.5722 161.775 22.9958 164.109 22.4343C164.577 21.7303 164.808 21.5421 164.79 20.2079C164.653 20.033 164.729 20.1611 164.62 19.8654C162.951 18.9359 159.125 18.1008 158.159 16.6116C157.668 16.0007 157.901 15.2551 157.989 14.3853C158.897 13.6777 159.552 12.4674 160.369 11.6453C162.191 9.8115 165.636 7.95274 165.81 4.6239C165.223 4.18737 165.131 3.85117 164.109 3.76759C163.435 4.27676 162.46 4.33949 161.729 4.79516C160.313 5.67763 155.759 9.15841 155.438 10.789C156.975 11.9806 157.435 16.1868 156.628 18.6667C155.456 22.2711 153.824 25.1494 149.317 25.0031C148.567 24.1592 147.499 23.8507 147.107 22.6056C145.865 18.6573 149.573 14.5631 150.337 11.9878C150.167 11.9878 149.997 11.9878 149.827 11.9878C149.368 12.4213 148.495 12.8867 147.787 13.0152C147.263 12.2058 146.425 11.5971 146.087 10.6177C147.334 9.89235 148.594 8.99006 150.167 8.56276C151.033 8.32757 152.318 8.75231 152.718 8.56276C153.862 8.10572 156.057 4.88319 157.308 3.93885C158.645 2.93026 160.164 1.70749 161.729 1.02757C162.432 0.721967 163.377 0.779909 163.939 0.342524ZM176.011 0.342524C180.846 0.255526 183.663 1.49265 184.853 4.96643C185.495 6.84176 185.193 9.7739 185.193 12.1591C185.193 20.495 185.3 24.4792 178.052 25.6881C177.126 25.8424 175.496 25.261 174.821 25.0031C170.153 23.2198 170.06 19.1579 170.06 12.6727C170.06 9.9602 169.809 6.90381 170.57 4.79516C171.204 3.03999 172.966 1.38804 174.651 0.685048C175.242 0.438581 175.599 0.649667 176.011 0.342524ZM192.674 0.342524C197.509 0.255526 200.325 1.49265 201.515 4.96643C202.158 6.84176 201.855 9.7739 201.855 12.1591C201.855 20.495 201.962 24.4792 194.714 25.6881C193.789 25.8424 192.159 25.261 191.484 25.0031C186.815 23.2198 186.723 19.1579 186.723 12.6727C186.723 9.9602 186.472 6.90381 187.233 4.79516C187.867 3.03999 189.628 1.38804 191.314 0.685048C191.904 0.438581 192.261 0.649667 192.674 0.342524ZM26.3884 0.85631C27.9751 0.85631 29.5624 0.85631 31.1491 0.85631C31.8477 2.96922 31.3326 7.69927 31.3191 10.2752C31.4325 10.2752 31.5458 10.2752 31.6591 10.2752C32.4289 10.7693 36.4927 10.466 37.7802 10.4465C37.8368 10.3894 37.8935 10.3323 37.9502 10.2752C37.9502 7.13592 37.9502 3.9956 37.9502 0.85631C39.5369 0.85631 41.1242 0.85631 42.7109 0.85631C43.3428 2.78702 42.8809 6.11569 42.8809 8.3915C42.8809 13.871 42.8809 19.3523 42.8809 24.8318C41.6558 25.248 39.4767 25.0169 37.9502 25.0031C37.9502 21.5783 37.9502 18.1526 37.9502 14.7278C36.3212 14.1778 33.4457 14.5422 31.4891 14.5566C30.7182 16.8917 31.3055 22.1728 31.3191 25.0031C29.6757 25.0031 28.0318 25.0031 26.3884 25.0031C26.3884 16.9549 26.3884 8.90443 26.3884 0.85631ZM61.0736 25.0031C59.3735 25.0031 57.6729 25.0031 55.9728 25.0031C55.5761 22.8912 55.1794 20.7786 54.7827 18.6667C53.7356 18.3096 51.8688 18.4818 50.532 18.4954C50.1353 20.6644 49.7386 22.8341 49.3419 25.0031C47.7748 25.026 45.5027 25.2634 44.2412 24.8318C46.1588 18.8347 47.0411 12.2885 48.8318 6.33635C49.1272 5.35476 49.6246 1.14978 50.192 0.85631C51.8354 0.85631 53.4793 0.85631 55.1228 0.85631C55.1794 0.913397 55.2361 0.970485 55.2928 1.02757C57.2195 9.0186 59.1468 17.012 61.0736 25.0031ZM70.2551 4.96643C70.2551 11.6446 70.2551 18.3249 70.2551 25.0031C68.6117 25.0031 66.9677 25.0031 65.3243 25.0031C64.7961 23.3916 65.1543 20.6031 65.1543 18.6667C65.1543 14.1004 65.1543 9.53273 65.1543 4.96643C63.4542 4.96643 61.7536 4.96643 60.0535 4.96643C59.5993 4.09867 59.6924 2.40092 59.7135 1.02757C60.9975 0.599759 63.2281 0.85631 64.8143 0.85631C68.3845 0.85631 71.9557 0.85631 75.5259 0.85631C75.8511 1.82201 75.7093 3.54403 75.6959 4.79516C75.5825 4.79516 75.4692 4.79516 75.3559 4.79516C74.4361 5.38911 71.5634 4.98933 70.2551 4.96643ZM137.925 25.0031C136.225 25.0031 134.525 25.0031 132.825 25.0031C132.428 22.8912 132.031 20.7786 131.634 18.6667C130.587 18.3096 128.72 18.4818 127.384 18.4954C126.987 20.6644 126.59 22.8341 126.194 25.0031C124.626 25.026 122.355 25.2634 121.093 24.8318C123.01 18.8347 123.893 12.2885 125.684 6.33635C125.979 5.35476 126.476 1.14978 127.044 0.85631C128.687 0.85631 130.331 0.85631 131.974 0.85631C132.031 0.913397 132.088 0.970485 132.145 1.02757C134.071 9.0186 135.999 17.012 137.925 25.0031ZM203.556 0.85631C205.142 0.85631 206.73 0.85631 208.316 0.85631C208.991 2.89522 208.5 7.44152 208.486 9.93268C208.6 9.93268 208.713 9.93268 208.826 9.93268C208.826 9.8756 208.826 9.81851 208.826 9.76142C210.281 8.26057 211.861 4.79158 213.077 2.91128C213.432 2.36143 213.679 1.12841 214.267 0.85631C215.911 0.85631 217.554 0.85631 219.198 0.85631C219.084 2.08711 218.335 2.62055 217.838 3.42507C216.922 4.90507 216.369 6.40028 215.457 7.87771C214.696 9.11227 213.57 10.3482 213.077 11.8166C213.803 12.6185 213.917 13.6822 214.437 14.7278C215.599 17.0631 216.973 19.5933 218.178 21.9205C218.451 22.4485 219.47 24.7574 219.368 24.8318C218.448 25.4257 215.576 25.026 214.267 25.0031C212.85 22.1492 211.433 19.2943 210.017 16.4403C209.903 16.4403 209.79 16.4403 209.676 16.4403C209.414 17.2679 208.709 17.8858 208.486 18.6667C208.486 20.7786 208.486 22.8912 208.486 25.0031C206.843 25.0031 205.199 25.0031 203.556 25.0031C203.556 16.9549 203.556 8.90443 203.556 0.85631ZM177.031 4.6239C176.849 4.75261 176.871 4.7268 176.521 4.79516C176.209 5.22554 175.721 5.79043 175.331 6.16509C175.118 10.5001 174.697 16.5261 175.671 20.3792C176.068 20.6646 176.465 20.95 176.861 21.2355C177.927 21.2563 178.531 21.083 179.242 20.8929C179.469 20.4504 179.95 19.9558 180.092 19.523C180.149 18.2102 180.205 16.897 180.262 15.5842C180.262 12.117 181.024 6.38968 178.902 4.96643C178.473 4.61997 177.846 4.60749 177.031 4.6239ZM193.694 4.6239C193.512 4.75261 193.533 4.7268 193.184 4.79516C192.871 5.22554 192.383 5.79043 191.994 6.16509C191.781 10.5001 191.36 16.5261 192.334 20.3792C192.73 20.6646 193.127 20.95 193.524 21.2355C194.589 21.2563 195.193 21.083 195.904 20.8929C196.132 20.4504 196.612 19.9558 196.755 19.523C196.811 18.2102 196.868 16.897 196.925 15.5842C196.925 12.117 197.687 6.38968 195.564 4.96643C195.135 4.61997 194.508 4.60749 193.694 4.6239ZM13.6363 5.13769C12.0671 7.5451 11.3617 11.5875 12.1061 15.4129C12.2194 15.4129 12.3329 15.4129 12.4463 15.4129C13.2711 12.1907 16.0045 9.25413 15.1666 5.30895C15.1099 5.25186 15.0532 5.19478 14.9966 5.13769C14.5432 5.13769 14.0897 5.13769 13.6363 5.13769ZM51.5522 14.2141C52.3734 14.2339 53.3648 14.2421 53.9325 14.0428C53.3032 12.3343 53.3534 10.1482 52.7425 8.3915C52.6056 8.56635 52.6821 8.43833 52.5723 8.73402C51.9857 9.51649 51.5613 12.853 51.5522 14.2141ZM128.404 14.2141C129.225 14.2339 130.217 14.2421 130.784 14.0428C130.155 12.3343 130.205 10.1482 129.594 8.3915C129.458 8.56635 129.534 8.43833 129.424 8.73402C128.838 9.51649 128.413 12.853 128.404 14.2141ZM153.228 13.3578C152.601 15.2122 151.163 16.8467 150.507 18.838C150.068 20.1728 149.802 21.7212 151.358 21.9205C151.673 21.5233 152.274 21.3031 152.548 20.8929C153.34 19.7057 154.736 14.6725 153.228 13.3578Z" fill="#010101"/>
</svg>
